<svg xmlns="http://www.w3.org/2000/svg" viewBox="0 0 64 64" fill="none">
  <circle cx="32" cy="32" r="30" fill="#25D366" />
  <path
    fill="#fff"
    d="M31.8 14c-9.6 0-17.4 7.8-17.4 17.4 0 3.1.8 6.1 2.4 8.7L14 50l10.1-2.6c2.5 1.4 5.4 2.1 8.3 2.1h.1c9.6 0 17.4-7.8 17.4-17.4S41.4 14 31.8 14Zm0 32.8h-.1c-2.7 0-5.4-.7-7.6-2l-.5-.3-6 .8.9-5.8-.3-.5a14.5 14.5 0 0 1-2.2-7.6c0-8 6.5-14.5 14.5-14.5 3.9 0 7.5 1.5 10.2 4.2a14.4 14.4 0 0 1 4.2 10.2c0 8-6.5 14.5-14.5 14.5Z"
  />
  <path
    fill="#fff"
    d="M40.3 35.2c-.5-.3-3-1.5-3.5-1.6-.5-.2-.8-.3-1.2.3-.3.5-1.3 1.6-1.6 2-.3.4-.6.4-1.1.1-.5-.3-2.1-.8-4.1-2.5a15.2 15.2 0 0 1-2.7-3.3c-.3-.5 0-.8.2-1.1l.8-.9c.3-.3.4-.5.6-.9.2-.4 0-.7 0-1-.1-.2-1.2-2.9-1.6-3.9-.4-1-.9-.9-1.2-.9h-1c-.3 0-.9.1-1.3.6-.4.5-1.6 1.6-1.6 4s1.7 4.7 2 5.1c.2.3 3.4 5.2 8.2 7.2 4.8 2.1 4.8 1.4 5.7 1.3.9 0 2.9-1.2 3.3-2.4.4-1.1.4-2.1.3-2.3-.2-.2-.5-.3-1.1-.6Z"
  />
</svg>
