<svg width="512" height="512" viewBox="0 0 512 512" fill="none" xmlns="http://www.w3.org/2000/svg">
  <defs>
    <linearGradient id="waLeft" x1="40" y1="40" x2="256" y2="472" gradientUnits="userSpaceOnUse">
      <stop offset="0" stop-color="#12BF3A"/>
      <stop offset="1" stop-color="#0DBA38"/>
    </linearGradient>
    <linearGradient id="waRight" x1="256" y1="40" x2="472" y2="472" gradientUnits="userSpaceOnUse">
      <stop offset="0" stop-color="#0FAA34"/>
      <stop offset="1" stop-color="#0E9D2F"/>
    </linearGradient>
  </defs>

  <circle cx="256" cy="256" r="256" fill="url(#waLeft)"/>
  <path d="M256 0C397.385 0 512 114.615 512 256C512 397.385 397.385 512 256 512V0Z" fill="url(#waRight)"/>

  <path d="M102 433L128.5 353.5C113.5 326.5 105.5 295.5 105.5 263C105.5 162.8 186.8 81.5 287 81.5C387.2 81.5 468.5 162.8 468.5 263C468.5 363.2 387.2 444.5 287 444.5C254.5 444.5 223.6 436.4 196.5 421.3L102 433Z" fill="white"/>
  <path d="M126 397L146.2 336.4C132.5 313.1 125.5 288.3 125.5 262.4C125.5 173.3 197.7 101 286.8 101C375.9 101 448.2 173.3 448.2 262.4C448.2 351.5 375.9 423.8 286.8 423.8C261 423.8 236.2 416.8 212.9 403.2L126 397Z" fill="#0CA938"/>

  <circle cx="286.5" cy="262.5" r="140.5" fill="white"/>
  <circle cx="286.5" cy="262.5" r="116.5" fill="#0CA938"/>

  <path d="M240.6 197.8H298.7C334.2 197.8 357.4 214.2 357.4 244.2C357.4 262.5 347.5 275.5 332.2 282.4C352.7 289.1 365.9 303.3 365.9 327.6C365.9 360.2 340.2 380 301.2 380H240.6C232.9 380 227 374.1 227 366.4V211.4C227 203.8 232.9 197.8 240.6 197.8ZM290.7 269.8C305.7 269.8 314.2 262.8 314.2 250.1C314.2 237.9 305.1 231.3 289.2 231.3H268.6V269.8H290.7ZM296.1 345.8C313.3 345.8 322.4 338.4 322.4 324.9C322.4 311.8 312.3 304.5 294.3 304.5H268.6V345.8H296.1Z" fill="#E5E7EB"/>
</svg>
